# xmcd
#
# Track frame offsets:
# 150
# 18250
# 38697
# 51477
# 64327
# 82172
# 95932
# 109592
# 126182
# 139092
# 155347
# 168232
#
# Disc length: 2384 seconds
#
#
# Revision: 0
# Processed by: cddbd v1.5.1PL0 Copyright (c) Steve Scherf et al.
# Submitted via: FreeRIP 2.941 
#
DISCID=a4094e0c
DTITLE=Sure Shot - TAKIN' AIM
DYEAR=1998
DGENRE=Country
TTITLE0=Baby I'm Gone
TTITLE1=Time Flies
TTITLE2=Polar Boogie
TTITLE3=Just The Way That I Am
TTITLE4=Love
TTITLE5=Between Us
TTITLE6=Country's What I Am
TTITLE7=Full Moon In Fairfax
TTITLE8=Change My Mind
TTITLE9=Reality
TTITLE10=Don't Lead Me On
TTITLE11=Guitar Talk
EXTD=
EXTT0=
EXTT1=
EXTT2=
EXTT3=
EXTT4=
EXTT5=
EXTT6=
EXTT7=
EXTT8=
EXTT9=
EXTT10=
EXTT11=
PLAYORDER=
